<svg xmlns="http://www.w3.org/2000/svg" viewBox="0 0 241 100">
    <path fill="white" d="M7,100a6.8,6.8,0,0,1-4.9-2,7,7,0,0,1,0-9.8l8-8A51,51,0,0,1,0,50,50,50,0,1,1,19.9,89.9l-8,8A6.51,6.51,0,0,1,7,100Z" />
    <circle fill="#facc15" cx="50" cy="50" r="48" />
    <path fill="#231004" d="M70,72.3l-7.1,7.1-3.6-3.6C52,82.2,40.6,82,31.5,75.6l-21,21a5.13,5.13,0,0,1-7.1,0,5.13,5.13,0,0,1,0-7.1l21-21C18,59.4,17.8,48,24.2,40.6L20.6,37l7.1-7.1L48.9,51.1h0Z" />
    <path fill="#663910" d="M62.9,30,47.4,45.5l-7.1-7.1L55.9,23A5.13,5.13,0,0,1,63,23h0A4.92,4.92,0,0,1,62.9,30ZM77,37.1a5.13,5.13,0,0,0-7.1,0L54.5,52.6l7.1,7.1L77,44.1A4.83,4.83,0,0,0,77,37.1Z" />
    <path fill="white" d="M185.5,26.5,164.8,74.6h-6.1L138,26.5h8.4l15.4,36,15.4-36Zm21.8,21.1a21.2,21.2,0,0,1,2,9.3,20.89,20.89,0,0,1-2,9.3A15.08,15.08,0,0,1,193.2,75a15.89,15.89,0,0,1-8.5-2.3,14.49,14.49,0,0,1-5.7-6.5,21.2,21.2,0,0,1-2-9.3,20.89,20.89,0,0,1,2-9.3,15.1,15.1,0,0,1,5.7-6.5,16.15,16.15,0,0,1,8.5-2.3,15.54,15.54,0,0,1,8.4,2.3A14.49,14.49,0,0,1,207.3,47.6Zm-5.9,9.3c0-3.6-.8-6.3-2.3-8.2a7.08,7.08,0,0,0-6-2.6,7.36,7.36,0,0,0-6,2.6c-1.5,1.9-2.3,4.6-2.3,8.2s.7,6.4,2.2,8.2a7.17,7.17,0,0,0,6,2.5c2.7,0,4.7-.8,6.1-2.6S201.4,60.5,201.4,56.9ZM241,46.6v-7h-9.1V29l-7.8,2.9v7.6h-5.4V25H211V74.6h7.7v-28h5.4V63.8c0,3.6,1,6.4,2.9,8.3a10.57,10.57,0,0,0,7.8,2.9,17.4,17.4,0,0,0,4.5-.6l1.5-.4V66.2l-2.7.9a7.66,7.66,0,0,1-2.7.4,4.25,4.25,0,0,1-2.8-.8c-.2-.3-.8-1.1-.8-3.7V46.6Z" />
    <path d="M182.5,28.5l-19,44.1H160L141,28.5h4l16.8,39.1,16.8-39.1Zm23,19.9a19,19,0,0,1,1.8,8.5,19.3,19.3,0,0,1-1.8,8.5,13,13,0,0,1-5,5.6,13.88,13.88,0,0,1-7.4,2,14.49,14.49,0,0,1-7.5-2,13,13,0,0,1-5-5.6,19,19,0,0,1-1.8-8.5,19.3,19.3,0,0,1,1.8-8.5,13,13,0,0,1,5-5.6,14.49,14.49,0,0,1,7.5-2,13.88,13.88,0,0,1,7.4,2A13,13,0,0,1,205.5,48.4Zm-2.1,8.5c0-4-.9-7.2-2.7-9.4a10.08,10.08,0,0,0-15.1,0c-1.8,2.3-2.7,5.4-2.7,9.4s.9,7.3,2.7,9.5a10.4,10.4,0,0,0,15.2,0C202.6,64.2,203.4,61,203.4,56.9Zm9.7,15.7h3.7V27h-3.7Zm25.9-28v-3h-9.1V31.9l-3.8,1.4v8.2H220v3h6.1V63.7c0,3.1.8,5.3,2.3,6.9a8.79,8.79,0,0,0,6.4,2.3,17.52,17.52,0,0,0,4-.5V69a9.6,9.6,0,0,1-3.3.6,6.07,6.07,0,0,1-4.2-1.4c-.9-.9-1.4-2.7-1.4-5.1V44.6Z"/>
</svg>
