<svg xmlns="http://www.w3.org/2000/svg" viewBox="0 0 178 80">
    <filter id="volt-glow">
        <feGaussianBlur in="dilated" result="blurred" stdDeviation="3" />
        <feMerge>
            <feMergeNode in="blurred"></feMergeNode>
            <feMergeNode in="SourceGraphic"></feMergeNode>
        </feMerge>
    </filter>
    <polygon filter="url(#volt-glow)" fill="#ffd001" points="38.5,36 27.9,36 32.5,12 12.5,38 24.3,38 14.5,68" />
    <path fill="#f1f5f9" d="M83.6,24.7L67.5,53.6h-5.9l-7.4-28.9h7.4l3.4,14.8c0.2,0.9,0.4,1.6,0.5,2.2c0.1,0.6,0.3,1.2,0.4,1.8 c0.1,0.4,0.1,0.8,0.2,1.2c0,0,0-0.1,0.1-0.1c0.3-0.7,0.7-1.5,1.1-2.3c0.4-0.8,0.9-1.7,1.5-2.8l7.6-14.8H83.6z M112.2,33 c0.5,1.8,0.5,3.8,0.2,6c-0.3,2.1-1,4.1-2,6c-1,1.8-2.3,3.4-3.9,4.8c-1.6,1.3-3.3,2.4-5.3,3.1c-1.9,0.7-4,1.1-6.2,1.1 c-2.2,0-4.2-0.4-5.9-1.1c-1.7-0.7-3.2-1.8-4.3-3.1c-1.2-1.3-2-2.9-2.5-4.8c-0.5-1.8-0.6-3.8-0.2-6c0.3-2.2,1-4.2,2-6 c1-1.8,2.3-3.4,3.9-4.8c1.6-1.3,3.3-2.4,5.3-3.1c1.9-0.7,4-1.1,6.2-1.1c2.2,0,4.2,0.4,5.9,1.1c1.7,0.7,3.2,1.8,4.3,3.1 C110.9,29.6,111.7,31.2,112.2,33z M105.1,35.7c-0.2-1-0.7-1.9-1.2-2.7c-0.6-0.8-1.3-1.3-2.2-1.8c-0.9-0.4-1.9-0.6-3.1-0.6 c-1.1,0-2.2,0.2-3.2,0.6c-1,0.4-1.9,1-2.8,1.8c-0.8,0.8-1.5,1.6-2,2.7c-0.5,1-0.9,2.1-1.1,3.3c-0.2,1.2-0.2,2.3,0.1,3.4 c0.2,1,0.6,1.9,1.2,2.7c0.6,0.7,1.4,1.3,2.3,1.7c0.9,0.4,1.9,0.6,3.1,0.6c1.1,0,2.2-0.2,3.2-0.6c1-0.4,1.9-1,2.8-1.8 c0.8-0.8,1.5-1.6,2-2.7c0.5-1,0.9-2.1,1.1-3.3C105.4,37.8,105.3,36.7,105.1,35.7z M127.1,24.7H120l-4.3,28.9h20.1l0.9-6.2h-13 L127.1,24.7z M139.6,24.7l-0.9,6.2h8.7L144,53.6h7.1l3.4-22.7h8.9l0.9-6.2H139.6z" />
</svg>
