<svg xmlns="http://www.w3.org/2000/svg" viewBox="0 0 178 80">
    <filter id="volt-glow">
        <feGaussianBlur in="dilated" result="blurred" stdDeviation="3" />
        <feMerge>
            <feMergeNode in="blurred"></feMergeNode>
            <feMergeNode in="SourceGraphic"></feMergeNode>
        </feMerge>
    </filter>
    <path fill="white" d="M11,75l10.5-35H8.5L35,6l-4.7,28h12.2L11,75z" />
    <polygon filter="url(#volt-glow)" fill="#ffd001" points="38.5,36 27.9,36 32.5,12 12.5,38 24.3,38 14.5,68" />
    <path fill="white" d="M126.1,45.4h13l-1.5,10.2h-24.1l4.9-32.9h11.1L126.1,45.4z M75.1,22.7c0,0-8.2,15.9-8.2,15.9l-3.7-15.9H51.7 L60,55.6h8.7L87,22.7H75.1z M137.9,22.7l-1.5,10.2h8.7l-3.4,22.7h11.1l3.4-22.7h8.9l1.5-10.2H137.9z M114.4,39.3 c-0.4,2.4-1.1,4.6-2.2,6.6c-1.1,2-2.6,3.8-4.3,5.3c-1.7,1.5-3.7,2.7-5.9,3.5c-2.2,0.8-4.5,1.2-6.9,1.2c-2.5,0-4.7-0.4-6.7-1.3 c-2-0.9-3.7-2.1-5.1-3.7c-1.4-1.6-2.3-3.4-2.9-5.5c-0.5-2.1-0.6-4.4-0.3-6.8c0.4-2.4,1.1-4.7,2.3-6.7c1.1-2,2.6-3.8,4.3-5.3 c1.7-1.5,3.7-2.7,5.9-3.5c2.2-0.8,4.5-1.2,6.9-1.2c2.5,0,4.7,0.4,6.7,1.3c2,0.9,3.7,2.1,5,3.7c1.4,1.6,2.3,3.4,2.9,5.6 C114.7,34.6,114.7,36.9,114.4,39.3z M103.2,36.1c-0.2-0.7-0.5-1.4-0.9-1.9c-0.4-0.5-0.9-0.9-1.5-1.2c-0.6-0.3-1.4-0.4-2.2-0.4 c-0.9,0-1.7,0.2-2.5,0.5c-0.8,0.3-1.5,0.8-2.2,1.4c-0.7,0.6-1.2,1.3-1.6,2.1c-0.4,0.8-0.7,1.7-0.9,2.7c-0.1,1-0.1,1.9,0,2.7 c0.2,0.7,0.4,1.3,0.8,1.8c0.4,0.5,0.9,0.9,1.6,1.2c0.6,0.3,1.4,0.4,2.2,0.4c0.9,0,1.7-0.2,2.5-0.5c0.8-0.3,1.5-0.8,2.2-1.4 c0.7-0.6,1.2-1.3,1.6-2.1c0.4-0.8,0.7-1.7,0.9-2.7C103.4,37.7,103.3,36.9,103.2,36.1z" />
    <path fill="#0f172a" d="M83.6,24.7L67.5,53.6h-5.9l-7.4-28.9h7.4l3.4,14.8c0.2,0.9,0.4,1.6,0.5,2.2c0.1,0.6,0.3,1.2,0.4,1.8 c0.1,0.4,0.1,0.8,0.2,1.2c0,0,0-0.1,0.1-0.1c0.3-0.7,0.7-1.5,1.1-2.3c0.4-0.8,0.9-1.7,1.5-2.8l7.6-14.8H83.6z M112.2,33 c0.5,1.8,0.5,3.8,0.2,6c-0.3,2.1-1,4.1-2,6c-1,1.8-2.3,3.4-3.9,4.8c-1.6,1.3-3.3,2.4-5.3,3.1c-1.9,0.7-4,1.1-6.2,1.1 c-2.2,0-4.2-0.4-5.9-1.1c-1.7-0.7-3.2-1.8-4.3-3.1c-1.2-1.3-2-2.9-2.5-4.8c-0.5-1.8-0.6-3.8-0.2-6c0.3-2.2,1-4.2,2-6 c1-1.8,2.3-3.4,3.9-4.8c1.6-1.3,3.3-2.4,5.3-3.1c1.9-0.7,4-1.1,6.2-1.1c2.2,0,4.2,0.4,5.9,1.1c1.7,0.7,3.2,1.8,4.3,3.1 C110.9,29.6,111.7,31.2,112.2,33z M105.1,35.7c-0.2-1-0.7-1.9-1.2-2.7c-0.6-0.8-1.3-1.3-2.2-1.8c-0.9-0.4-1.9-0.6-3.1-0.6 c-1.1,0-2.2,0.2-3.2,0.6c-1,0.4-1.9,1-2.8,1.8c-0.8,0.8-1.5,1.6-2,2.7c-0.5,1-0.9,2.1-1.1,3.3c-0.2,1.2-0.2,2.3,0.1,3.4 c0.2,1,0.6,1.9,1.2,2.7c0.6,0.7,1.4,1.3,2.3,1.7c0.9,0.4,1.9,0.6,3.1,0.6c1.1,0,2.2-0.2,3.2-0.6c1-0.4,1.9-1,2.8-1.8 c0.8-0.8,1.5-1.6,2-2.7c0.5-1,0.9-2.1,1.1-3.3C105.4,37.8,105.3,36.7,105.1,35.7z M127.1,24.7H120l-4.3,28.9h20.1l0.9-6.2h-13 L127.1,24.7z M139.6,24.7l-0.9,6.2h8.7L144,53.6h7.1l3.4-22.7h8.9l0.9-6.2H139.6z" />
</svg>
