<svg xmlns="http://www.w3.org/2000/svg" viewBox="0 0 450 100">
    <title>laravel volt logo</title>
    <path fill="white" d="M7,100c-1.9,0-3.6-0.7-4.9-2c-1.3-1.3-2-3.1-2-4.9s0.7-3.6,2-4.9l8-8C3.6,71.4,0,60.8,0,50C0,22.4,22.4,0,50,0 s50,22.4,50,50s-22.4,50-50,50c-10.8,0-21.4-3.6-30.1-10.1l-8,8C10.6,99.3,8.9,100,7,100z"/>
    <circle id="b" fill="#facc15" cx="50" cy="50" r="48"/>
    <path fill="#231004" d="M70,72.3l-7.1,7.1l-3.6-3.6C52,82.2,40.6,82,31.5,75.6l-21,21c-1.9,1.9-5.1,1.9-7.1,0c-1.9-1.9-1.9-5.1,0-7.1 l21-21C18,59.4,17.8,48,24.2,40.6l-3.6-3.6l7.1-7.1l21.2,21.2c0,0,0,0,0,0L70,72.3z"/>
    <path fill="#663910" d="M62.9,30L47.4,45.5l-7.1-7.1L55.9,23c1.9-1.9,5.1-1.9,7.1,0h0C64.9,24.9,64.9,28.1,62.9,30z M77,37.1 c-1.9-1.9-5.1-1.9-7.1,0L54.5,52.6l7.1,7.1L77,44.1C79,42.2,79,39,77,37.1z"/>
    <path fill="white" d="M320.1,61.8l0.2-1.8c0.7-5.7-0.9-11.2-4.4-15.1c-3.2-3.6-7.7-5.6-12.6-5.6c-9.7,0-17.5,8-17.5,17.8 c0,10.7,7.4,17.8,18.4,17.8c6.6,0,10.5-2.8,14.7-7.3l1.5-1.6l-5.6-4.3H320.1z M303.3,48.9c3.6,0,5.2,2,5.9,3.6h-11.8 C298.1,50.9,299.7,48.9,303.3,48.9z M303.7,65.4c-3.5,0-5.4-1.9-6.3-3.6h13.4C310,62.7,307.3,65.4,303.7,65.4z M185.8,41.5 c-0.4-0.2-0.8-0.4-1.2-0.6c-2-1-4.1-1.5-6.2-1.5c-2.6,0-5,0.5-7.1,1.4c-2.1,0.9-4,2.3-5.6,3.9c-1.5,1.6-2.7,3.6-3.6,5.7 c-0.8,2.1-1.3,4.4-1.3,6.8c0,2.2,0.4,4.4,1.1,6.4h-12.6V25H138v49.2h25.5v-7.8c0.7,1.1,1.4,2.2,2.3,3.2c1.5,1.7,3.4,3,5.6,3.9 c2.1,0.9,4.5,1.4,7.1,1.4c2.1,0,4.2-0.5,6.2-1.5c0.4-0.2,0.8-0.4,1.2-0.7v1.4h11.1V40.1h-11.1V41.5z M185.3,60.2 c-0.3,0.9-0.8,1.7-1.4,2.4c-0.6,0.7-1.3,1.2-2.2,1.6c-0.8,0.4-1.8,0.6-2.8,0.6c-1,0-2-0.2-2.8-0.6c-0.9-0.4-1.6-0.9-2.2-1.6 c-0.6-0.7-1.1-1.4-1.4-2.4c-0.3-0.9-0.5-2-0.5-3c0-1.1,0.2-2.1,0.5-3c0.3-0.9,0.8-1.7,1.4-2.4c0.6-0.7,1.3-1.2,2.2-1.6 c0.8-0.4,1.7-0.6,2.8-0.6c1.1,0,2,0.2,2.8,0.6c0.9,0.4,1.6,0.9,2.2,1.6c0.6,0.7,1.1,1.5,1.4,2.4c0.3,0.9,0.5,1.9,0.5,3 C185.8,58.2,185.7,59.2,185.3,60.2z M332,25v49.2h-11.1V25H332z M279.4,40.1l-7.5,19.5l-7.5-19.5h-10h-1.5h-9.6v1.4 c-0.4-0.2-0.8-0.4-1.2-0.6c-2-1-4.1-1.5-6.2-1.5c-2.6,0-5,0.5-7.1,1.4c-2.1,0.9-4,2.3-5.6,3.9c-0.6,0.6-1.1,1.3-1.6,2.1v-6.6h-23.2 v34.1h11.1V51h10c-0.7,2-1.1,4-1.1,6.1c0,2.4,0.4,4.7,1.3,6.8c0.8,2.1,2,4,3.6,5.7c1.5,1.7,3.4,3,5.6,3.9c2.2,0.9,4.5,1.4,7.1,1.4 c2.1,0,4.2-0.5,6.2-1.5c0.4-0.2,0.8-0.4,1.2-0.7v1.4h11.1V44l11.7,30.2h11.6l13.2-34.1H279.4z M242.8,60.2c-0.3,0.9-0.8,1.7-1.4,2.4 c-0.6,0.7-1.3,1.2-2.2,1.6c-0.8,0.4-1.8,0.6-2.8,0.6c-1,0-2-0.2-2.8-0.6c-0.9-0.4-1.6-0.9-2.2-1.6c-0.6-0.7-1.1-1.4-1.4-2.4 c-0.3-0.9-0.5-2-0.5-3c0-1.1,0.2-2.1,0.5-3c0.3-0.9,0.8-1.7,1.4-2.4c0.6-0.7,1.3-1.2,2.2-1.6c0.8-0.4,1.7-0.6,2.8-0.6 c1,0,2,0.2,2.8,0.6c0.9,0.4,1.6,0.9,2.2,1.6c0.6,0.7,1.1,1.5,1.4,2.4c0.3,0.9,0.5,1.9,0.5,3C243.3,58.2,243.2,59.2,242.8,60.2z"/>
    <path d="M147.5,65.6h14v6.7H140V27h7.5V65.6z M187.8,42.1h7.1v30.1h-7.1v-4.1c-1,1.5-2.3,2.7-4.1,3.6c-1.8,0.9-3.5,1.3-5.3,1.3 c-2.3,0-4.4-0.4-6.3-1.3c-1.9-0.8-3.5-2-4.9-3.5c-1.4-1.5-2.4-3.1-3.2-5c-0.8-1.9-1.1-3.9-1.1-6.1c0-2.1,0.4-4.1,1.1-6 c0.8-1.9,1.8-3.6,3.2-5.1c1.4-1.5,3-2.6,4.9-3.5c1.9-0.8,4-1.3,6.3-1.3c1.8,0,3.5,0.4,5.3,1.3c1.8,0.9,3.1,2,4.1,3.6V42.1z M187.8,57.2c0-1.3-0.2-2.5-0.6-3.7c-0.4-1.2-1-2.2-1.8-3c-0.8-0.9-1.7-1.6-2.8-2.1c-1.1-0.5-2.3-0.8-3.7-0.8 c-1.3,0-2.6,0.3-3.6,0.8c-1.1,0.5-2,1.2-2.8,2.1c-0.8,0.9-1.4,1.9-1.8,3c-0.4,1.2-0.6,2.4-0.6,3.7c0,1.3,0.2,2.5,0.6,3.7 c0.4,1.2,1,2.2,1.8,3c0.8,0.9,1.7,1.6,2.8,2.1c1.1,0.5,2.3,0.8,3.6,0.8c1.3,0,2.6-0.3,3.7-0.8c1.1-0.5,2-1.2,2.8-2.1 c0.8-0.9,1.4-1.9,1.8-3C187.6,59.7,187.8,58.5,187.8,57.2z M245.3,42.1h7.1v30.1h-7.1v-4.1c-1,1.5-2.3,2.7-4.1,3.6 c-1.8,0.9-3.5,1.3-5.3,1.3c-2.3,0-4.4-0.4-6.3-1.3c-1.9-0.8-3.5-2-4.9-3.5c-1.4-1.5-2.4-3.1-3.2-5c-0.8-1.9-1.1-3.9-1.1-6.1 c0-2.1,0.4-4.1,1.1-6c0.8-1.9,1.8-3.6,3.2-5.1c1.4-1.5,3-2.6,4.9-3.5c1.9-0.8,4-1.3,6.3-1.3c1.8,0,3.5,0.4,5.3,1.3 c1.8,0.9,3.1,2,4.1,3.6V42.1z M245.3,57.2c0-1.3-0.2-2.5-0.6-3.7c-0.4-1.2-1-2.2-1.8-3c-0.8-0.9-1.7-1.6-2.8-2.1 c-1.1-0.5-2.3-0.8-3.7-0.8c-1.3,0-2.6,0.3-3.6,0.8c-1.1,0.5-2,1.2-2.8,2.1c-0.8,0.9-1.4,1.9-1.8,3c-0.4,1.2-0.6,2.4-0.6,3.7 c0,1.3,0.2,2.5,0.6,3.7c0.4,1.2,1,2.2,1.8,3c0.8,0.9,1.7,1.6,2.8,2.1c1.1,0.5,2.3,0.8,3.6,0.8c1.3,0,2.6-0.3,3.7-0.8 c1.1-0.5,2-1.2,2.8-2.1c0.8-0.9,1.4-1.9,1.8-3C245.1,59.7,245.3,58.5,245.3,57.2z M322.9,27v45.2h7.1V27H322.9z M200.5,72.2h7.1V49 h12.1v-6.9h-19.2V72.2z M280.8,42.1l-8.9,23.1L263,42.1h-7.2l11.6,30.1h8.9l11.6-30.1H280.8z M318.3,59.8h-23.5 c0,2.6,2.6,7.6,8.9,7.6c5.4,0,9-4.7,9-4.7l4.8,3.7c-4.3,4.5-7.8,6.6-13.3,6.6c-9.8,0-16.4-6.2-16.4-15.8c0-8.7,6.9-15.8,15.5-15.8 C313,41.3,319.6,49.8,318.3,59.8z M311.8,54.6c-0.1-0.6-1-7.6-8.5-7.6c-7.6,0-8.4,7-8.4,7.6H311.8z"/>
    <path fill="white" d="M394.5,26.5l-20.7,48.1h-6.1L347,26.5h8.4l15.4,36l15.4-36H394.5z M416.3,47.6c1.3,2.7,2,5.8,2,9.3 c0,3.5-0.7,6.7-2,9.3c-1.3,2.8-3.3,4.9-5.7,6.5c-2.4,1.5-5.3,2.3-8.4,2.3c-3.2,0-6.1-0.8-8.5-2.3c-2.5-1.5-4.4-3.7-5.7-6.5 c-1.3-2.7-2-5.8-2-9.3c0-3.5,0.7-6.7,2-9.3c1.3-2.8,3.3-5,5.7-6.5c2.5-1.5,5.3-2.3,8.5-2.3c3.2,0,6,0.8,8.4,2.3 C413.1,42.6,415,44.8,416.3,47.6z M410.4,56.9c0-3.6-0.8-6.3-2.3-8.2c-1.4-1.8-3.4-2.6-6-2.6c-2.6,0-4.6,0.9-6,2.6 c-1.5,1.9-2.3,4.6-2.3,8.2c0,3.6,0.7,6.4,2.2,8.2c1.4,1.7,3.3,2.5,6,2.5c2.7,0,4.7-0.8,6.1-2.6C409.6,63.3,410.4,60.5,410.4,56.9z M450,46.6v-7h-9.1V29l-7.8,2.9v7.6h-5.4V25h-7.7v49.6h7.7v-28h5.4v17.2c0,3.6,1,6.4,2.9,8.3c1.9,1.9,4.5,2.9,7.8,2.9 c1.5,0,3-0.2,4.5-0.6l1.5-0.4v-7.8l-2.7,0.9c-0.8,0.3-1.7,0.4-2.7,0.4c-1.3,0-2.2-0.3-2.8-0.8c-0.2-0.3-0.8-1.1-0.8-3.7V46.6H450z"/>
    <path d="M391.5,28.5l-19,44.1H369l-19-44.1h4l16.8,39.1l16.8-39.1H391.5z M414.5,48.4c1.2,2.4,1.8,5.3,1.8,8.5c0,3.2-0.6,6-1.8,8.5 c-1.2,2.4-2.8,4.3-5,5.6c-2.1,1.3-4.6,2-7.4,2c-2.8,0-5.3-0.7-7.5-2c-2.2-1.3-3.8-3.2-5-5.6c-1.2-2.4-1.8-5.3-1.8-8.5 c0-3.2,0.6-6,1.8-8.5c1.2-2.4,2.8-4.3,5-5.6c2.2-1.3,4.7-2,7.5-2c2.8,0,5.3,0.7,7.4,2C411.7,44.1,413.3,46,414.5,48.4z M412.4,56.9 c0-4-0.9-7.2-2.7-9.4c-1.8-2.2-4.3-3.4-7.5-3.4c-3.2,0-5.8,1.1-7.6,3.4c-1.8,2.3-2.7,5.4-2.7,9.4c0,4.1,0.9,7.3,2.7,9.5 c1.8,2.2,4.3,3.3,7.6,3.3c3.3,0,5.8-1.1,7.6-3.3S412.4,61,412.4,56.9z M422.1,72.6h3.7V27h-3.7V72.6z M448,44.6v-3h-9.1v-9.7 l-3.8,1.4v8.2H429v3h6.1v19.2c0,3.1,0.8,5.3,2.3,6.9c1.5,1.5,3.7,2.3,6.4,2.3c1.4,0,2.7-0.2,4-0.5V69c-1.1,0.4-2.2,0.6-3.3,0.6 c-1.8,0-3.2-0.5-4.2-1.4c-0.9-0.9-1.4-2.7-1.4-5.1V44.6H448z"/>
</svg>

