<svg width="413" height="64" viewBox="0 0 413 64" fill="none" xmlns="http://www.w3.org/2000/svg">
<rect width="64" height="64" fill="#5130BD"/>
<path d="M38.2499 12L13 37.3138H28.9264L26.7501 53L52 27.6862H36.0736L38.2499 12Z" fill="#FDFDFC"/>
<path d="M103.659 7.625H96V55.5535H118.046V48.5012H103.659V7.625Z" fill="white"/>
<path d="M145.087 27.9603C144.109 26.3627 142.722 25.1079 140.924 24.1946C139.126 23.2817 137.316 22.8251 135.496 22.8251C133.141 22.8251 130.988 23.2703 129.035 24.1602C127.08 25.0501 125.404 26.2723 124.006 27.8235C122.607 29.3757 121.519 31.1675 120.742 33.1978C119.964 35.2297 119.576 37.3643 119.576 39.6003C119.576 41.8831 119.964 44.0283 120.742 46.0362C121.519 48.0455 122.607 49.8258 124.006 51.377C125.404 52.9292 127.08 54.15 129.035 55.0399C130.988 55.9298 133.141 56.375 135.496 56.375C137.316 56.375 139.126 55.9183 140.924 55.0059C142.722 54.0936 144.11 52.8383 145.087 51.2402V55.5539H152.346V23.6471H145.087V27.9603ZM144.421 43.5027C143.977 44.7355 143.355 45.8081 142.556 46.7209C141.756 47.6342 140.791 48.3644 139.659 48.912C138.526 49.46 137.271 49.7335 135.895 49.7335C134.518 49.7335 133.275 49.46 132.165 48.912C131.054 48.364 130.1 47.6342 129.301 46.7209C128.502 45.8081 127.891 44.7355 127.469 43.5027C127.047 42.2705 126.837 40.9693 126.837 39.6003C126.837 38.2307 127.047 36.9296 127.469 35.6973C127.89 34.465 128.502 33.3929 129.301 32.4796C130.1 31.5672 131.055 30.8361 132.165 30.2886C133.275 29.7406 134.518 29.467 135.895 29.467C137.271 29.467 138.526 29.7406 139.659 30.2886C140.791 30.8366 141.756 31.5672 142.556 32.4796C143.355 33.3929 143.977 34.465 144.421 35.6973C144.864 36.9296 145.087 38.2307 145.087 39.6003C145.087 40.9693 144.864 42.2705 144.421 43.5027Z" fill="white"/>
<path d="M204.099 27.9603C203.121 26.3627 201.734 25.1079 199.936 24.1946C198.138 23.2817 196.328 22.8251 194.508 22.8251C192.153 22.8251 190.001 23.2703 188.047 24.1602C186.093 25.0501 184.417 26.2723 183.018 27.8235C181.619 29.3757 180.531 31.1675 179.754 33.1978C178.977 35.2297 178.589 37.3643 178.589 39.6003C178.589 41.8831 178.977 44.0283 179.754 46.0362C180.531 48.0455 181.619 49.8258 183.018 51.377C184.417 52.9292 186.092 54.15 188.047 55.0399C190 55.9298 192.153 56.375 194.508 56.375C196.328 56.375 198.138 55.9183 199.936 55.0059C201.734 54.0936 203.122 52.8383 204.099 51.2402V55.5539H211.359V23.6471H204.099V27.9603ZM203.433 43.5027C202.988 44.7355 202.367 45.8081 201.568 46.7209C200.768 47.6342 199.803 48.3644 198.67 48.912C197.538 49.46 196.283 49.7335 194.907 49.7335C193.53 49.7335 192.286 49.46 191.177 48.912C190.066 48.364 189.112 47.6342 188.313 46.7209C187.513 45.8081 186.903 44.7355 186.481 43.5027C186.058 42.2705 185.849 40.9693 185.849 39.6003C185.849 38.2307 186.058 36.9296 186.481 35.6973C186.902 34.465 187.513 33.3929 188.313 32.4796C189.112 31.5672 190.067 30.8361 191.177 30.2886C192.286 29.7406 193.53 29.467 194.907 29.467C196.283 29.467 197.538 29.7406 198.67 30.2886C199.803 30.8366 200.768 31.5672 201.568 32.4796C202.367 33.3929 202.988 34.465 203.433 35.6973C203.876 36.9296 204.099 38.2307 204.099 39.6003C204.099 40.9693 203.876 42.2705 203.433 43.5027Z" fill="white"/>
<path d="M291 7.625H283.741V55.5535H291V7.625Z" fill="white"/>
<path d="M158.075 55.5535H165.335V30.9901H177.79V23.6471H158.075V55.5535Z" fill="white"/>
<path d="M240.465 23.6471L231.34 48.0804L222.216 23.6471H214.862L226.778 55.5535H235.902L247.818 23.6471H240.465Z" fill="white"/>
<path d="M263.652 22.8265C254.762 22.8265 247.725 30.3369 247.725 39.6007C247.725 49.8416 254.536 56.375 264.582 56.375C270.205 56.375 273.795 54.1648 278.181 49.3514L273.276 45.4504C273.273 45.4542 269.574 50.4469 264.051 50.4469C257.631 50.4469 254.928 45.1262 254.928 42.3733H279.013C280.278 31.8326 273.537 22.8265 263.652 22.8265ZM254.947 36.8278C255.003 36.2138 255.839 28.7541 263.594 28.7541C271.349 28.7541 272.291 36.2128 272.345 36.8278H254.947Z" fill="white"/>
<path fill-rule="evenodd" clip-rule="evenodd" d="M359.876 22.9243C363.068 22.9243 365.84 23.6379 368.192 25.0659C370.586 26.4939 372.434 28.4473 373.736 30.9253C375.08 33.4033 375.752 36.2597 375.752 39.4937C375.752 42.6855 375.08 45.5626 373.736 48.1245C372.434 50.6443 370.586 52.6389 368.192 54.1089C365.84 55.5789 363.068 56.314 359.876 56.314C356.726 56.314 353.954 55.5789 351.56 54.1089C349.166 52.639 347.297 50.6442 345.953 48.1245C344.651 45.5626 344 42.6855 344 39.4937C344 36.2597 344.672 33.4033 346.016 30.9253C347.36 28.4473 349.208 26.4939 351.56 25.0659C353.954 23.6379 356.726 22.9243 359.876 22.9243ZM359.876 27.2085C356.684 27.2085 354.101 28.3214 352.127 30.5474C350.153 32.7733 349.166 35.7343 349.166 39.4302C349.166 41.9081 349.607 44.092 350.489 45.9819C351.371 47.8719 352.61 49.3636 354.206 50.4556C355.844 51.5055 357.734 52.0308 359.876 52.0308C362.06 52.0308 363.95 51.5055 365.546 50.4556C367.142 49.3636 368.381 47.8719 369.263 45.9819C370.145 44.092 370.586 41.9081 370.586 39.4302C370.586 35.7343 369.599 32.7733 367.625 30.5474C365.693 28.3214 363.11 27.2085 359.876 27.2085Z" fill="#A1A09A"/>
<path d="M402.655 23.5571H412.231V27.8413H402.655V46.7417C402.655 48.5476 403.117 49.8705 404.041 50.7104C404.965 51.5504 406.477 51.9702 408.577 51.9702C409.417 51.9702 410.131 51.9282 410.719 51.8442C411.349 51.7182 411.853 51.5718 412.231 51.4038V55.687C411.812 55.855 411.202 55.9809 410.404 56.0649C409.648 56.1909 408.787 56.2544 407.821 56.2544C404.251 56.2544 401.647 55.4568 400.009 53.8608C398.413 52.2228 397.615 49.8702 397.615 46.8042V27.8413H391V23.5571H397.615V16.0601L402.655 14.1704V23.5571Z" fill="#A1A09A"/>
<path d="M325.198 50.6294L341.433 7.68604H347L328.354 55.686H321.646L303 7.68604H308.902L325.198 50.6294Z" fill="#A1A09A"/>
<path d="M386 55.686H381V9.68604H386V55.686Z" fill="#A1A09A"/>
</svg>
